# xmcd
#
# Track frame offsets:
#	150
#	14740
#	33860
#	49757
#	67922
#	83350
#	95952
#	106342
#	127425
#	139190
#	160105
#	177500
#	195230
#	210305
#	228305
#	240845
#	254937
#	271897
#
# Disc length: 3785 seconds
#
# Revision: 3
# Processed by: cddbd v1.5.2PL0 Copyright (c) Steve Scherf et al.
# Submitted via: audiograbber 1.83.01
#
DISCID=f70ec712
DTITLE=Various Artist - All time greatest country songs 2 - CD2
DYEAR=2001
DGENRE=Country
TTITLE0=Doobie Brothers - Eyes of silver (live) (1996)
TTITLE1=Dolly Parton - The river unbroken (1987)
TTITLE2=Backseat Boys - Bitter moon (1994)
TTITLE3=Chet Atkins - Poor boy blues (Med Mark Knopfler) (1990)
TTITLE4=Janie Fricke - Give'em my number (1989)
TTITLE5=Loggins and Messina - Your mummy dont dance (1976)
TTITLE6=George Jones - Maybellene (Med Johnny Paycheck)
TTITLE7=Henning Stærk - When you say nothing at all (1988)
TTITLE8=Sweethearts of the Rodeo - I feel fine (1988)
TTITLE9=Big Fat Snake - Female voice (1998)
TTITLE10=Albert Hammond - It never rains in sunny California (1972)
TTITLE11=Barbara Fairchild - Mississippi (1975)
TTITLE12=Poco - You better think twice (1970)
TTITLE13=Billy Swan - I can help
TTITLE14=Willie Nelson - Big river (Med Johnny Cash, Waylon Jennings and Kris Kri
TTITLE14=stofferson) (1985)
TTITLE15=Lacy J.Dalton - 16 avenue (1986)
TTITLE16=Gill Vince - Pretty little Adriane (1996)
TTITLE17=Frankie Lane - High noon (1975)
EXTD=
EXTT0=
EXTT1=
EXTT2=
EXTT3=
EXTT4=
EXTT5=
EXTT6=
EXTT7=
EXTT8=
EXTT9=
EXTT10=
EXTT11=
EXTT12=
EXTT13=
EXTT14=
EXTT15=
EXTT16=
EXTT17=
PLAYORDER=
